<?xml version="1.0" encoding="UTF-8"?>
<svg id="Artwork" xmlns="http://www.w3.org/2000/svg" viewBox="0 0 359.76 154.35">
  <defs>
    <style>
      .cls-1 {
        fill: #898a8d;
      }

      .cls-1, .cls-2 {
        stroke-width: 0px;
      }

      .cls-2 {
        fill: #d7282f;
      }
    </style>
  </defs>
  <g>
    <path class="cls-2" d="M22.53,143.53c-6.36,0-11.67-4.71-11.67-11.7s5.31-11.73,11.67-11.73c2.58,0,4.56.69,6.24,1.53v5.58c-1.8-1.23-3.42-1.86-5.58-1.86-3.66,0-6.6,2.61-6.6,6.48s2.94,6.51,6.6,6.51c2.16,0,3.75-.75,5.58-2.01v5.67c-1.68.84-3.66,1.53-6.24,1.53Z"/>
    <path class="cls-2" d="M54.63,120.1c6.63,0,11.7,4.86,11.7,11.73s-5.07,11.73-11.7,11.73-11.73-4.89-11.73-11.73,5.13-11.73,11.73-11.73ZM60.6,131.83c0-4.17-2.94-6.57-5.97-6.57s-6,2.4-6,6.57,2.91,6.54,6,6.54,5.97-2.37,5.97-6.54Z"/>
    <path class="cls-2" d="M85.4,143.02h-5.37l3.12-22.38h6.66l4.2,13.74h.03l4.08-13.74h6.48l3.15,22.38h-5.43l-1.56-14.64h-.12l-4.38,14.64h-4.8l-4.29-14.61h-.12l-1.65,14.61Z"/>
    <path class="cls-2" d="M122.9,120.64h7.02c6.51,0,10.14,3.15,10.14,8.07,0,4.53-3.36,8.46-9.78,8.46h-1.68v5.85h-5.7v-22.38ZM130.55,132.13c2.16,0,3.78-1.14,3.78-3.21s-1.62-3.15-3.81-3.15h-1.92v6.36h1.95Z"/>
    <path class="cls-2" d="M154.62,120.64h14.76v5.07h-9.06v3.72h8.19v4.62h-8.19v3.9h9.06v5.07h-14.76v-22.38Z"/>
    <path class="cls-2" d="M189.81,125.77h-6.39v-5.13h18.42v5.13h-6.36v17.25h-5.67v-17.25Z"/>
    <path class="cls-2" d="M216.17,120.64h5.7v22.38h-5.7v-22.38Z"/>
    <path class="cls-2" d="M242.56,125.77h-6.39v-5.13h18.42v5.13h-6.36v17.25h-5.67v-17.25Z"/>
    <path class="cls-2" d="M268.92,120.64h5.7v22.38h-5.7v-22.38Z"/>
    <path class="cls-2" d="M301.5,120.1c6.63,0,11.7,4.86,11.7,11.73s-5.07,11.73-11.7,11.73-11.73-4.89-11.73-11.73,5.13-11.73,11.73-11.73ZM307.47,131.83c0-4.17-2.94-6.57-5.97-6.57s-6,2.4-6,6.57,2.91,6.54,6,6.54,5.97-2.37,5.97-6.54Z"/>
    <path class="cls-2" d="M348.35,143.02h-5.4l-9.06-13.35h-.03v13.35h-5.43v-22.38h5.46l9,13.11h.03v-13.11h5.43v22.38Z"/>
  </g>
  <g>
    <path class="cls-1" d="M11.33,92.54h13.2c2.42,0,3.55.31,4.39,1.22.65.72.98,1.94.98,3.67,0,2.59-.6,3.5-2.57,3.96,1.63.31,2.26,1.15,2.26,3v4.15h-1.92v-3.05c.05-2.76-.65-3.43-3.43-3.41h-10.99v6.46h-1.92v-16.01ZM23.79,100.58c3.29,0,4.13-.65,4.13-3.24s-.86-3.19-4.25-3.19h-10.42v6.43h10.54Z"/>
    <path class="cls-1" d="M78.24,93.84c1.03,1.08,1.27,2.33,1.27,6.7s-.24,5.64-1.27,6.72c-1.22,1.27-2.45,1.46-9.03,1.46s-7.8-.19-9.02-1.46c-1.03-1.08-1.27-2.33-1.27-6.7s.24-5.67,1.27-6.72c1.22-1.27,2.45-1.46,9.12-1.46s7.7.22,8.93,1.46ZM61.75,95.04c-.67.7-.84,1.85-.84,5.52s.17,4.8.84,5.5c.82.86,1.82.98,7.46.98s6.65-.14,7.46-.98c.67-.7.84-1.85.84-5.5s-.17-4.82-.84-5.52c-.74-.82-2.09-.98-7.37-.98s-6.79.17-7.56.98Z"/>
    <path class="cls-1" d="M108.87,92.54h12.82c2.35,0,3.29.22,4.08.94.79.74,1.13,1.7,1.13,3.34s-.36,2.35-1.37,2.93c-.36.19-.53.26-.77.34,1.87.34,2.71,1.46,2.71,3.72,0,1.78-.34,2.83-1.15,3.6-.89.82-2.02,1.15-3.91,1.15h-13.54v-16.01ZM120.35,99.43c2.57,0,3.17-.07,3.72-.41.58-.36.84-1.06.84-2.18,0-2.04-.82-2.69-3.43-2.69h-10.68v5.28h9.55ZM121.55,106.94c3.17,0,3.94-.6,3.94-3.05s-.72-2.95-4.37-2.95h-10.32v6h10.75Z"/>
    <path class="cls-1" d="M175.62,93.84c1.03,1.08,1.27,2.33,1.27,6.7s-.24,5.64-1.27,6.72c-1.22,1.27-2.45,1.46-9.03,1.46s-7.8-.19-9.02-1.46c-1.03-1.08-1.27-2.33-1.27-6.7s.24-5.67,1.27-6.72c1.22-1.27,2.45-1.46,9.12-1.46s7.7.22,8.93,1.46ZM159.13,95.04c-.67.7-.84,1.85-.84,5.52s.17,4.8.84,5.5c.82.86,1.82.98,7.46.98s6.65-.14,7.46-.98c.67-.7.84-1.85.84-5.5s-.17-4.82-.84-5.52c-.74-.82-2.09-.98-7.37-.98s-6.79.17-7.56.98Z"/>
    <path class="cls-1" d="M212.68,94.15h-8.14v-1.61h18.17v1.61h-8.11v14.4h-1.92v-14.4Z"/>
    <path class="cls-1" d="M250.96,92.54h1.92v16.01h-1.92v-16.01Z"/>
    <path class="cls-1" d="M301.32,103.17v.67c0,1.92-.19,2.76-.82,3.48-.6.72-1.39,1.06-2.86,1.22-.91.07-3.65.17-5.81.17-5.79,0-7.2-.24-8.38-1.46-1.03-1.06-1.27-2.33-1.27-6.7,0-4.99.34-6.26,1.97-7.3,1.22-.77,2.54-.89,9.14-.89,4.01,0,5.4.19,6.38.91,1.08.74,1.42,1.75,1.49,4.3h-1.87v-.41c0-2.83-.67-3.12-7.39-3.12-7.68,0-7.73.02-7.73,6.5,0,3.65.17,4.8.84,5.5.77.79,1.99.98,6.48.98,7.2,0,7.94-.26,7.94-2.95v-.91h1.87Z"/>
    <path class="cls-1" d="M332.06,103.56v.43c0,1.61.34,2.26,1.37,2.59.94.31,2.71.46,5.59.46,6.26,0,7.39-.48,7.39-3.14,0-1.34-.41-1.94-1.49-2.26-1.06-.29-1.15-.29-8.3-.34-2.9-.02-4.15-.24-5.14-.89-.96-.65-1.34-1.54-1.34-3.12,0-2.4.86-3.77,2.76-4.32,1.37-.41,3.48-.6,6.77-.6,3.7,0,5.59.26,6.7.96,1.18.72,1.54,1.56,1.61,3.79h-1.87c-.02-1.27-.24-1.85-.77-2.26-.74-.58-2.4-.82-5.64-.82-6.31,0-7.54.5-7.54,3.07,0,1.1.31,1.73.98,2.04.84.38,1.56.43,6.1.46,5.09.02,6.19.12,7.34.67,1.3.62,1.82,1.7,1.82,3.7,0,2.21-.74,3.53-2.33,4.13-1.18.43-3,.6-6.7.6-3.89,0-5.71-.17-7.01-.6-1.44-.5-2.23-1.73-2.23-3.46v-1.1h1.92Z"/>
  </g>
  <g>
    <path class="cls-2" d="M310.54,54.78h21.39c6.69,0,11.31,6.7,8.93,12.95l-.99,2.59c-2.38,6.24-8.36,10.36-15.04,10.36h-36.98l3.95-10.36h32.48c1.67,0,3.17-1.03,3.76-2.59.48-1.25-.45-2.59-1.79-2.59h-32.48l9.87-25.91h44.87l-3.95,10.36h-32.04l-1.97,5.18Z"/>
    <polygon class="cls-2" points="297.21 39.24 283.4 39.24 268.58 64.98 258.77 39.24 245.96 39.24 261.75 80.69 273.34 80.69 297.21 39.24"/>
    <path class="cls-1" d="M210.64,39.25c-.17,0-.33.05-.46.15,0,0-18.28,12.71-19.16,13.32-.88-.61-19.25-13.32-19.25-13.32-.14-.09-.3-.14-.46-.14h-16.92c-.36,0-.67.23-.78.57-.02.08-.03.16-.03.24,0,.26.13.52.35.67,0,0,25.56,17.3,27.41,18.56-1.87,1.25-29.74,19.93-29.74,19.93-.23.15-.36.41-.36.67,0,.08.01.16.04.24.1.34.42.57.77.57h17.29c.17,0,.33-.05.46-.14,0,0,20.33-14.07,21.22-14.69.89.62,21.03,14.69,21.03,14.69.14.1.3.15.47.15h17.01c.36,0,.67-.23.77-.57.03-.08.04-.16.04-.24,0-.26-.13-.52-.36-.67,0,0-27.7-18.67-29.56-19.93,1.85-1.25,27.51-18.56,27.51-18.56.23-.15.36-.41.36-.67,0-.08-.01-.16-.03-.24-.1-.34-.42-.58-.77-.58h-16.82Z"/>
    <path class="cls-1" d="M77.64,39.25c-.24,0-.47.11-.63.3,0,0-24.14,29.53-25.35,31-1.19-1.48-24.88-30.99-24.88-30.99-.15-.19-.39-.31-.63-.31h-14.2c-.31,0-.6.18-.73.46-.13.29-.09.62.11.86l32.8,39.83c.15.19.38.29.63.29h13.83c.24,0,.47-.1.62-.29l33.27-39.82c.2-.24.25-.58.11-.86-.13-.29-.42-.47-.73-.47h-14.2Z"/>
    <path class="cls-2" d="M100.09,39.24c-1.63-2.99-2.61-6.95-2.61-11.25,0-9.07,4.54-16.69,10.08-16.69h35c1.86,0,3.4,2.54,3.4,5.62s-1.53,5.62-3.4,5.62h-35c-1.86,0-3.29,2.54-3.29,5.44s1.32,5.71,3.29,5.71h35c1.86,0,3.4,2.5,3.4,5.54h0c0,3.04-1.53,5.54-3.4,5.54h-35c-1.97,0-3.29,2.81-3.29,5.71s1.43,5.44,3.29,5.44h35c1.86,0,3.4,2.54,3.4,5.62s-1.53,5.63-3.4,5.63h-35c-5.53,0-10.08-7.62-10.08-16.69,0-4.3.99-8.26,2.61-11.25h0Z"/>
    <path class="cls-1" d="M227.62,69.28c.46,0,.91.12,1.34.35.44.24.77.57,1.02,1.01.24.44.37.89.37,1.37s-.12.92-.36,1.35c-.24.44-.58.77-1.01,1.01-.43.24-.89.36-1.36.36s-.92-.12-1.36-.36c-.43-.24-.77-.58-1.01-1.01-.24-.43-.36-.89-.36-1.35s.12-.93.37-1.37c.25-.44.59-.77,1.02-1.01.44-.23.88-.35,1.34-.35M227.62,69.73c-.38,0-.76.1-1.12.29-.36.2-.65.48-.85.84-.21.37-.31.74-.31,1.14s.1.77.3,1.13c.2.36.48.64.85.84.36.2.74.3,1.13.3s.77-.1,1.13-.3c.36-.2.64-.48.84-.84.2-.36.3-.74.3-1.13s-.1-.78-.31-1.14c-.2-.37-.49-.65-.85-.84-.36-.2-.74-.29-1.12-.29M226.43,73.52v-2.94h1.01c.35,0,.59.03.75.08.15.06.28.15.37.29.09.14.14.28.14.43,0,.21-.08.4-.23.56-.15.16-.36.25-.61.27.1.04.19.1.25.15.12.12.26.31.43.58l.36.58h-.58l-.26-.46c-.21-.36-.37-.59-.5-.68-.09-.07-.21-.1-.38-.1h-.28v1.25h-.47ZM226.9,71.87h.58c.27,0,.46-.04.56-.12.1-.08.15-.19.15-.33,0-.09-.02-.17-.07-.23-.05-.07-.12-.12-.2-.15-.09-.03-.24-.05-.48-.05h-.54v.89Z"/>
  </g>
</svg>