<?xml version="1.0" encoding="UTF-8"?>
<svg id="Artwork" xmlns="http://www.w3.org/2000/svg" viewBox="0 0 351.6 154.35">
  <defs>
    <style>
      .cls-1 {
        fill: #898a8d;
      }

      .cls-1, .cls-2 {
        stroke-width: 0px;
      }

      .cls-2 {
        fill: #0075c9;
      }
    </style>
  </defs>
  <g id="ROBOTICS">
    <path class="cls-1" d="M11.26,92.54h13.2c2.42,0,3.55.31,4.39,1.22.65.72.98,1.94.98,3.67,0,2.59-.6,3.51-2.57,3.96,1.63.31,2.26,1.15,2.26,3v4.15h-1.92v-3.05c.05-2.76-.65-3.43-3.43-3.41h-10.99v6.46h-1.92v-16.01ZM23.71,100.58c3.29,0,4.13-.65,4.13-3.24s-.86-3.19-4.25-3.19h-10.42v6.43h10.54Z"/>
    <path class="cls-1" d="M77.02,93.84c1.03,1.08,1.27,2.33,1.27,6.7s-.24,5.64-1.27,6.72c-1.22,1.27-2.45,1.46-9.03,1.46s-7.8-.19-9.02-1.46c-1.03-1.08-1.27-2.33-1.27-6.7s.24-5.66,1.27-6.72c1.22-1.27,2.45-1.46,9.12-1.46s7.7.22,8.93,1.46M60.53,95.04c-.67.7-.84,1.85-.84,5.52s.17,4.8.84,5.5c.82.86,1.82.98,7.46.98s6.65-.14,7.46-.98c.67-.7.84-1.85.84-5.5s-.17-4.82-.84-5.52c-.74-.82-2.09-.98-7.37-.98s-6.79.17-7.56.98"/>
    <path class="cls-1" d="M106.61,92.54h12.82c2.35,0,3.29.22,4.08.94.79.74,1.13,1.7,1.13,3.34s-.36,2.35-1.37,2.93c-.36.19-.53.26-.77.34,1.87.34,2.71,1.46,2.71,3.72,0,1.78-.34,2.83-1.15,3.6-.89.82-2.02,1.15-3.91,1.15h-13.54v-16.01ZM118.08,99.43c2.57,0,3.17-.07,3.72-.41.58-.36.84-1.06.84-2.18,0-2.04-.82-2.69-3.43-2.69h-10.68v5.28h9.55ZM119.28,106.94c3.17,0,3.94-.6,3.94-3.05s-.72-2.95-4.37-2.95h-10.32v6h10.75Z"/>
    <path class="cls-1" d="M172.18,93.84c1.03,1.08,1.27,2.33,1.27,6.7s-.24,5.64-1.27,6.72c-1.22,1.27-2.45,1.46-9.03,1.46s-7.8-.19-9.02-1.46c-1.03-1.08-1.27-2.33-1.27-6.7s.24-5.66,1.27-6.72c1.22-1.27,2.45-1.46,9.12-1.46s7.7.22,8.93,1.46M155.69,95.04c-.67.7-.84,1.85-.84,5.52s.17,4.8.84,5.5c.82.86,1.82.98,7.46.98s6.65-.14,7.46-.98c.67-.7.84-1.85.84-5.5s-.17-4.82-.84-5.52c-.74-.82-2.09-.98-7.37-.98s-6.79.17-7.56.98"/>
    <polygon class="cls-1" points="207.94 94.15 199.8 94.15 199.8 92.54 217.97 92.54 217.97 94.15 209.86 94.15 209.86 108.55 207.94 108.55 207.94 94.15"/>
    <rect class="cls-1" x="245.06" y="92.54" width="1.92" height="16.01"/>
    <path class="cls-1" d="M294.43,103.17v.67c0,1.92-.19,2.76-.82,3.48-.6.72-1.39,1.06-2.86,1.22-.91.07-3.65.17-5.81.17-5.78,0-7.2-.24-8.38-1.46-1.03-1.06-1.27-2.33-1.27-6.7,0-4.99.34-6.26,1.97-7.3,1.22-.77,2.54-.89,9.14-.89,4.01,0,5.4.19,6.38.91,1.08.74,1.42,1.75,1.49,4.3h-1.87v-.41c0-2.83-.67-3.12-7.39-3.12-7.68,0-7.73.02-7.73,6.5,0,3.65.17,4.8.84,5.5.77.79,1.99.98,6.48.98,7.2,0,7.94-.27,7.94-2.95v-.91h1.87Z"/>
    <path class="cls-1" d="M324,103.56v.43c0,1.61.34,2.26,1.37,2.59.94.31,2.71.46,5.59.46,6.26,0,7.39-.48,7.39-3.14,0-1.34-.41-1.94-1.49-2.26-1.06-.29-1.15-.29-8.3-.34-2.9-.02-4.15-.24-5.14-.89-.96-.65-1.34-1.54-1.34-3.12,0-2.4.86-3.77,2.76-4.32,1.37-.41,3.48-.6,6.77-.6,3.7,0,5.59.26,6.7.96,1.18.72,1.54,1.56,1.61,3.79h-1.87c-.02-1.27-.24-1.85-.77-2.26-.74-.58-2.4-.82-5.64-.82-6.31,0-7.54.5-7.54,3.07,0,1.1.31,1.73.98,2.04.84.38,1.56.43,6.1.46,5.09.02,6.19.12,7.35.67,1.3.62,1.82,1.7,1.82,3.7,0,2.21-.74,3.53-2.33,4.13-1.18.43-3,.6-6.7.6-3.89,0-5.71-.17-7.01-.6-1.44-.5-2.23-1.73-2.23-3.46v-1.1h1.92Z"/>
  </g>
  <g>
    <path class="cls-1" d="M210.76,39.22c-.17,0-.33.05-.46.15,0,0-18.29,12.72-19.17,13.33-.88-.61-19.27-13.33-19.27-13.33-.14-.09-.3-.15-.46-.15h-16.93c-.36,0-.67.23-.78.57-.02.08-.04.16-.04.24,0,.26.13.52.36.67,0,0,25.58,17.31,27.44,18.57-1.87,1.25-29.77,19.94-29.77,19.94-.23.15-.36.41-.36.67,0,.08.01.16.04.24.1.34.42.58.77.58h17.3c.17,0,.33-.05.46-.15,0,0,20.35-14.09,21.23-14.7.89.62,21.05,14.7,21.05,14.7.14.1.3.15.47.15h17.02c.36,0,.67-.23.77-.57.03-.08.04-.16.04-.24,0-.26-.13-.52-.36-.67,0,0-27.72-18.68-29.58-19.94,1.86-1.25,27.53-18.57,27.53-18.57.23-.15.36-.41.36-.67,0-.08-.01-.16-.03-.24-.11-.34-.42-.57-.77-.57h-16.84Z"/>
    <path class="cls-1" d="M77.66,39.22c-.24,0-.47.11-.63.3,0,0-24.16,29.55-25.36,31.02-1.19-1.48-24.9-31.02-24.9-31.02-.15-.19-.39-.3-.63-.3h-14.21c-.31,0-.6.18-.73.46-.13.28-.09.62.11.86l32.83,39.86c.15.19.38.3.63.3h13.84c.24,0,.47-.11.62-.29l33.29-39.86c.2-.24.25-.58.11-.86-.13-.29-.42-.47-.73-.47h-14.22Z"/>
    <path class="cls-2" d="M100.13,39.21c-1.63-2.99-2.62-6.95-2.62-11.26,0-9.08,4.55-16.7,10.08-16.7h35.03c1.87,0,3.4,2.54,3.4,5.63s-1.53,5.63-3.4,5.63h-35.03c-1.87,0-3.29,2.54-3.29,5.45s1.32,5.72,3.29,5.72h35.03c1.87,0,3.4,2.5,3.4,5.54h0c0,3.04-1.53,5.55-3.4,5.55h-35.03c-1.97,0-3.29,2.81-3.29,5.72s1.43,5.45,3.29,5.45h35.03c1.87,0,3.4,2.54,3.4,5.63s-1.53,5.63-3.4,5.63h-35.03c-5.54,0-10.08-7.63-10.08-16.7,0-4.3.99-8.26,2.62-11.26h0Z"/>
  </g>
  <g>
    <g>
      <polygon class="cls-2" points="258.89 39.21 254.94 49.59 261.35 49.59 253.45 70.33 247.04 70.33 243.09 80.7 268.75 80.7 272.7 70.33 266.29 70.33 274.19 49.59 280.6 49.59 284.55 39.21 258.89 39.21"/>
      <path class="cls-2" d="M328.4,39.21h-26.33c-6.68,0-12.67,4.13-15.05,10.37h0l-7.29,19.13c-2.2,5.79,2.07,11.99,8.26,11.99h27.38c3.22,0,6.27-.96,8.84-2.64l2.26,2.64h6.41l1.98-5.19-4.44-5.19,6.91-18.15c2.38-6.26-2.24-12.96-8.93-12.96ZM317.12,54.77l-3.95,10.37,3.3,3.86c-1.29.84-2.81,1.33-4.42,1.33h-14.55c-2.68,0-4.53-2.68-3.57-5.19h0s3.94-10.38,3.94-10.38c1.2-3.12,4.19-5.18,7.53-5.18h14.55c2.68,0,4.53,2.68,3.57,5.19l-1.97,5.18-4.43-5.18Z"/>
    </g>
    <path class="cls-2" d="M340.82,75.23c.46,0,.91.12,1.34.35.44.24.78.57,1.02,1.01.24.44.37.9.37,1.37s-.12.92-.36,1.36c-.24.44-.58.77-1.01,1.01-.43.24-.89.36-1.36.36s-.93-.12-1.36-.36c-.43-.24-.77-.58-1.01-1.01-.24-.43-.36-.89-.36-1.36s.12-.93.37-1.37c.25-.44.59-.77,1.02-1.01.44-.23.88-.35,1.34-.35ZM340.82,75.68c-.38,0-.76.1-1.12.29-.36.2-.65.48-.85.84-.21.37-.31.75-.31,1.14s.1.77.3,1.13c.2.36.48.64.85.84.36.2.74.3,1.13.3s.77-.1,1.13-.3c.36-.2.64-.48.84-.84.2-.36.3-.74.3-1.13s-.1-.78-.31-1.14c-.2-.37-.49-.65-.85-.84-.36-.2-.74-.29-1.12-.29ZM339.62,79.47v-2.94h1.01c.35,0,.59.03.75.08.15.06.28.15.37.29.09.14.14.28.14.43,0,.21-.08.4-.23.56-.15.16-.36.25-.61.27.1.04.19.1.25.16.12.12.26.31.43.58l.36.58h-.58l-.26-.46c-.21-.36-.37-.59-.5-.68-.09-.07-.21-.1-.38-.1h-.28v1.25h-.47ZM340.09,77.82h.58c.27,0,.46-.04.56-.12.1-.08.15-.19.15-.33,0-.09-.02-.17-.07-.23-.05-.07-.12-.12-.2-.15-.09-.03-.24-.05-.48-.05h-.54v.89Z"/>
  </g>
  <g>
    <path class="cls-2" d="M22.54,143.53c-6.36,0-11.67-4.71-11.67-11.7s5.31-11.73,11.67-11.73c2.58,0,4.56.69,6.24,1.53v5.58c-1.8-1.23-3.42-1.86-5.58-1.86-3.66,0-6.6,2.61-6.6,6.48s2.94,6.51,6.6,6.51c2.16,0,3.75-.75,5.58-2.01v5.67c-1.68.84-3.66,1.53-6.24,1.53Z"/>
    <path class="cls-2" d="M53.82,120.1c6.63,0,11.7,4.86,11.7,11.73s-5.07,11.73-11.7,11.73-11.73-4.89-11.73-11.73,5.13-11.73,11.73-11.73ZM59.79,131.83c0-4.17-2.94-6.57-5.97-6.57s-6,2.4-6,6.57,2.91,6.54,6,6.54,5.97-2.37,5.97-6.54Z"/>
    <path class="cls-2" d="M83.78,143.02h-5.37l3.12-22.38h6.66l4.2,13.74h.03l4.08-13.74h6.48l3.15,22.38h-5.43l-1.56-14.64h-.12l-4.38,14.64h-4.8l-4.29-14.61h-.12l-1.65,14.61Z"/>
    <path class="cls-2" d="M120.47,120.64h7.02c6.51,0,10.14,3.15,10.14,8.07,0,4.53-3.36,8.46-9.78,8.46h-1.68v5.85h-5.7v-22.38ZM128.12,132.13c2.16,0,3.78-1.14,3.78-3.21s-1.62-3.15-3.81-3.15h-1.92v6.36h1.95Z"/>
    <path class="cls-2" d="M151.38,120.64h14.76v5.07h-9.06v3.72h8.19v4.62h-8.19v3.9h9.06v5.07h-14.76v-22.38Z"/>
    <path class="cls-2" d="M185.76,125.77h-6.39v-5.13h18.42v5.13h-6.36v17.25h-5.67v-17.25Z"/>
    <path class="cls-2" d="M211.32,120.64h5.7v22.38h-5.7v-22.38Z"/>
    <path class="cls-2" d="M236.89,125.77h-6.39v-5.13h18.42v5.13h-6.36v17.25h-5.67v-17.25Z"/>
    <path class="cls-2" d="M262.44,120.64h5.7v22.38h-5.7v-22.38Z"/>
    <path class="cls-2" d="M294.21,120.1c6.63,0,11.7,4.86,11.7,11.73s-5.07,11.73-11.7,11.73-11.73-4.89-11.73-11.73,5.13-11.73,11.73-11.73ZM300.18,131.83c0-4.17-2.94-6.57-5.97-6.57s-6,2.4-6,6.57,2.91,6.54,6,6.54,5.97-2.37,5.97-6.54Z"/>
    <path class="cls-2" d="M340.25,143.02h-5.4l-9.06-13.35h-.03v13.35h-5.43v-22.38h5.46l9,13.11h.03v-13.11h5.43v22.38Z"/>
  </g>
</svg>