<?xml version="1.0" encoding="UTF-8"?><svg id="Layer_1" xmlns="http://www.w3.org/2000/svg" xmlns:xlink="http://www.w3.org/1999/xlink" viewBox="0 0 300 300"><defs><style>.cls-1{fill:url(#linear-gradient-3);}.cls-2{fill:url(#linear-gradient-2);}.cls-3{fill:url(#linear-gradient);}</style><linearGradient id="linear-gradient" x1="297.5" y1="316.41" x2="297.5" y2="19.61" gradientTransform="translate(-147.5 -17)" gradientUnits="userSpaceOnUse"><stop offset="0" stop-color="#e09b3d"/><stop offset=".3" stop-color="#c74c4d"/><stop offset=".6" stop-color="#c21975"/><stop offset="1" stop-color="#7024c4"/></linearGradient><linearGradient id="linear-gradient-2" y1="316.41" y2="19.61" xlink:href="#linear-gradient"/><linearGradient id="linear-gradient-3" x1="375.24" y1="316.41" x2="375.24" y2="19.61" xlink:href="#linear-gradient"/></defs><path class="cls-3" d="M210.63.28h-121.26C40.09.28,0,40.37,0,89.65v121.26c0,49.28,40.09,89.37,89.37,89.37h121.26c49.28,0,89.37-40.09,89.37-89.37v-121.26c0-49.28-40.09-89.37-89.37-89.37ZM269.82,210.91c0,32.69-26.5,59.19-59.19,59.19h-121.26c-32.69,0-59.19-26.5-59.19-59.19v-121.26c0-32.69,26.5-59.19,59.19-59.19h121.26c32.69,0,59.19,26.5,59.19,59.19v121.26h0Z"/><path class="cls-2" d="M150,72.69c-42.78,0-77.59,34.81-77.59,77.59s34.81,77.59,77.59,77.59,77.59-34.81,77.59-77.59-34.81-77.59-77.59-77.59ZM150,197.69c-26.18,0-47.41-21.23-47.41-47.41s21.23-47.41,47.41-47.41,47.41,21.23,47.41,47.41-21.23,47.41-47.41,47.41Z"/><circle class="cls-1" cx="227.74" cy="73.27" r="18.59"/></svg>