<?xml version="1.0" encoding="UTF-8"?><svg id="Layer_1" xmlns="http://www.w3.org/2000/svg" viewBox="0 0 300 300"><defs><style>.cls-1{fill:#00b900;}.cls-2{fill:#fff;}</style></defs><path class="cls-1" d="M149.86,0c-8.34,0-16.68.3-25,.88C75.07,4.41,44.93,13.8,30.93,19.33c-5.68,2.24-9.4,7.73-9.4,13.83v141.17c0,71.99,98.62,114.83,122.95,124.3,3.46,1.35,7.29,1.35,10.75,0,24.33-9.47,122.94-52.31,122.94-124.3V33.16c0-6.1-3.72-11.59-9.4-13.83-14-5.53-44.14-14.92-93.93-18.45-8.32-.59-16.65-.88-24.99-.88"/><path class="cls-2" d="M186.21,166.6h-49.46v-89.8c0-2.79-2.26-5.05-5.05-5.05h-18.2c-2.79,0-5.05,2.26-5.05,5.05v113.06h0c0,1.37.54,2.59,1.41,3.5.02.02.05.05.07.08.02.02.05.04.08.07.91.87,2.13,1.41,3.49,1.41h72.72c2.79,0,5.05-2.26,5.05-5.05v-18.2c0-2.79-2.26-5.06-5.05-5.06"/></svg>