<?xml version="1.0" encoding="UTF-8"?><svg id="Layer_1" xmlns="http://www.w3.org/2000/svg" viewBox="0 0 300 300"><defs><style>.cls-1{fill:#08fff9;}.cls-2{fill:#f00044;}</style></defs><path class="cls-2" d="M107.58,156.95c-23.66,0-42.77,19.11-42.42,42.54.23,15.03,8.51,28.09,20.69,35.37-4.14-6.35-6.58-13.87-6.7-21.97-.35-23.42,18.76-42.54,42.42-42.54,4.66,0,9.15.76,13.34,2.1v-46.91c-4.37-.64-8.86-.99-13.34-.99h-.64v34.5c-4.2-1.34-8.68-2.1-13.34-2.1Z"/><path class="cls-2" d="M209.84,16.29h-12.47c3.5,17.54,13.34,32.81,27.1,43.18-9.03-11.95-14.51-26.86-14.63-43.18Z"/><path class="cls-2" d="M281.16,87.67c-4.6,0-9.03-.47-13.4-1.28v33.62c-15.85,0-31.23-3.09-45.68-9.26-9.32-3.96-18.01-9.03-25.99-15.15l.23,103.66c-.12,23.31-9.32,45.16-25.99,61.65-13.58,13.4-30.77,21.97-49.41,24.71-4.37.64-8.86.99-13.34.99-19.93,0-38.92-6.47-54.37-18.41,1.75,2.1,3.61,4.14,5.65,6.12,16.78,16.55,39.04,25.7,62.76,25.7,4.49,0,8.97-.35,13.34-.99,18.65-2.74,35.84-11.3,49.41-24.71,16.67-16.49,25.87-38.34,25.99-61.65l-.87-103.66c7.92,6.12,16.61,11.25,25.99,15.15,14.51,6.12,29.89,9.26,45.68,9.26"/><path class="cls-1" d="M58.69,150.36c16.61-16.49,38.69-25.64,62.23-25.81v-12.41c-4.37-.64-8.86-.99-13.34-.99-23.77,0-46.09,9.15-62.87,25.81-16.49,16.37-25.93,38.75-25.87,62,0,23.42,9.26,45.39,25.99,62,2.68,2.62,5.42,5.07,8.33,7.28-13.17-15.67-20.34-35.25-20.39-55.88.06-23.25,9.44-45.62,25.93-62Z"/><path class="cls-1" d="M267.76,86.38v-12.47h-.12c-16.2,0-31.12-5.36-43.12-14.45,10.43,13.75,25.7,23.54,43.24,26.92Z"/><path class="cls-1" d="M119.18,254.14c5.54.29,10.84-.47,15.73-2.04,16.9-5.54,29.08-21.27,29.08-39.8l.06-69.34V16.29h33.33c-.87-4.37-1.34-8.8-1.4-13.4h-45.92v126.62l-.06,69.34c0,18.53-12.18,34.26-29.08,39.8-4.89,1.63-10.2,2.39-15.73,2.04-7.05-.41-13.64-2.51-19.35-5.89,7.17,11.07,19.4,18.59,33.33,19.35h0Z"/><path d="M120.92,285.61c18.65-2.74,35.84-11.3,49.41-24.71,16.67-16.49,25.87-38.34,25.99-61.65l-.23-103.66c7.92,6.12,16.61,11.25,25.99,15.15,14.51,6.12,29.89,9.26,45.68,9.26v-33.62c-17.54-3.38-32.81-13.17-43.24-26.92-13.75-10.37-23.66-25.64-27.1-43.18h-33.39v126.62l-.06,69.34c0,18.53-12.18,34.26-29.08,39.8-4.89,1.63-10.2,2.39-15.73,2.04-13.98-.76-26.16-8.27-33.33-19.29-12.18-7.23-20.45-20.34-20.69-35.37-.35-23.42,18.76-42.54,42.42-42.54,4.66,0,9.15.76,13.34,2.1v-34.5c-23.54.17-45.62,9.32-62.23,25.81-16.49,16.37-25.93,38.75-25.87,61.94,0,20.63,7.17,40.21,20.39,55.88,15.5,11.95,34.44,18.41,54.37,18.41,4.49.06,8.97-.29,13.34-.93h0Z"/></svg>