<?xml version="1.0" encoding="UTF-8"?>
<svg id="Layer_1" xmlns="http://www.w3.org/2000/svg" version="1.1" viewBox="0 0 140.89 27.68">
  <!-- Generator: Adobe Illustrator 29.2.1, SVG Export Plug-In . SVG Version: 2.1.0 Build 116)  -->
  <defs>
    <style>
      .st0 {
        fill: #ef443a;
      }

      .st1 {
        fill: #080c12;
      }
    </style>
  </defs>
  <g>
    <g>
      <path class="st0" d="M10.11,5.22c.13-.23.37-.36.63-.36h1.61c.4,0,.73-.33.73-.73V.73c0-.4-.33-.73-.73-.73h-3.08c-1.09,0-2.09.58-2.64,1.52L.41,12.32c-.54.94-.54,2.1,0,3.05l6.23,10.8c.54.94,1.55,1.52,2.64,1.52h3.08c.4,0,.73-.33.73-.73v-3.4c0-.4-.33-.73-.73-.73h-1.61c-.26,0-.5-.14-.63-.36l-4.64-8.04-.13-.22c-.13-.23-.13-.5,0-.73l4.77-8.26Z"/>
      <path class="st0" d="M30.62,15.36l-6.23,10.8c-.54.94-1.55,1.52-2.64,1.52h-3.08c-.4,0-.73-.33-.73-.73v-3.4c0-.4.33-.73.73-.73h1.62c.26,0,.5-.14.63-.36l4.77-8.26c.07-.12.1-.25.1-.38,0-.12-.04-.24-.1-.35l-4.77-8.26c-.13-.23-.37-.36-.63-.36h-1.62c-.4,0-.73-.33-.73-.73V.73c0-.4.33-.73.73-.73h3.08c1.09,0,2.09.58,2.64,1.52l5.43,9.41.38.66.42.73c.54.94.54,2.1,0,3.05Z"/>
    </g>
    <g>
      <path class="st0" d="M23.57,15.43l-3.43,5.94c-.09.15-.25.24-.42.24h-8.42c-.17,0-.33-.09-.42-.24l-4.17-7.22c-.08-.13-.01-.3.13-.35,1.89-.64,4.88-.87,8.84,1.32,2.38,1.32,5.06.99,7.58-.03.21-.09.42.14.3.34Z"/>
      <circle class="st0" cx="18.91" cy="12.1" r="1.25"/>
      <circle class="st0" cx="14.33" cy="8.98" r=".81" transform="translate(3.36 21.86) rotate(-81.64)"/>
      <circle class="st0" cx="16.3" cy="4.44" r=".57"/>
    </g>
  </g>
  <g>
    <path class="st1" d="M48.59,19.06c-.55.33-1.04.57-1.46.73-.42.16-.87.26-1.35.3-.94.1-1.82,0-2.66-.3-.84-.3-1.57-.74-2.2-1.31-.63-.58-1.14-1.26-1.51-2.06-.37-.8-.56-1.64-.56-2.55s.17-1.72.5-2.51c.34-.79.81-1.48,1.41-2.07.61-.59,1.32-1.04,2.15-1.35.83-.31,1.75-.43,2.75-.36.39.02.77.09,1.13.19.36.11.68.23.97.38l-.81,1.63c-.37-.17-.69-.28-.95-.32-.26-.04-.55-.07-.88-.07-.59,0-1.15.12-1.68.36-.54.24-1.01.57-1.41.97-.41.41-.73.88-.97,1.41-.24.54-.36,1.1-.36,1.68s.12,1.17.37,1.7c.25.54.58,1.01.99,1.41.41.41.88.73,1.41.97.53.24,1.08.36,1.66.36.21,0,.41,0,.6-.03.19-.02.37-.05.56-.1.19-.05.38-.12.58-.21.2-.09.42-.21.67-.36l1.05,1.46Z"/>
    <path class="st1" d="M60.8,7.55c.87,0,1.68.16,2.45.49.76.33,1.43.78,2,1.35.57.57,1.02,1.24,1.35,2,.33.76.49,1.58.49,2.45s-.16,1.68-.49,2.45c-.33.76-.78,1.43-1.35,2-.57.57-1.24,1.02-2,1.35-.76.33-1.58.49-2.45.49s-1.68-.16-2.45-.49c-.76-.33-1.43-.78-2-1.35-.57-.57-1.02-1.24-1.35-2-.33-.76-.5-1.58-.5-2.45s.17-1.68.5-2.45c.33-.76.78-1.43,1.35-2,.57-.57,1.24-1.02,2-1.35.76-.33,1.58-.49,2.45-.49ZM60.8,18.05c.58,0,1.12-.11,1.63-.33.51-.22.96-.52,1.35-.9.38-.38.69-.82.91-1.34.22-.51.33-1.06.33-1.65s-.11-1.13-.33-1.64c-.22-.51-.52-.95-.91-1.34-.38-.38-.83-.69-1.35-.91-.51-.22-1.06-.33-1.63-.33s-1.14.11-1.65.33c-.51.22-.96.52-1.35.91-.38.38-.69.83-.91,1.34-.22.51-.33,1.06-.33,1.64s.11,1.14.33,1.65c.22.51.52.96.91,1.34.38.38.83.68,1.35.9.51.22,1.06.33,1.65.33Z"/>
    <path class="st1" d="M75.17,7.57c.49,0,1,0,1.56.03.55.02,1.1.08,1.64.2.54.12,1.06.3,1.55.56.49.25.92.62,1.3,1.08.37.47.67,1.06.9,1.79.23.72.34,1.61.34,2.66s-.11,1.92-.34,2.63c-.23.72-.52,1.31-.9,1.77-.37.46-.8.82-1.3,1.07-.49.25-1.01.43-1.55.55-.54.12-1.09.19-1.64.2-.55.02-1.07.03-1.56.03h-2V7.57h2ZM76.24,18.28c.47,0,.97-.04,1.48-.14.51-.09.98-.29,1.41-.6.43-.31.78-.76,1.06-1.34.28-.58.41-1.36.41-2.34,0-.65-.06-1.22-.19-1.7-.13-.48-.3-.88-.52-1.21-.22-.33-.47-.59-.76-.8-.29-.2-.59-.36-.91-.47-.32-.11-.65-.19-.99-.22-.34-.03-.67-.05-.98-.05h-1.22v8.87h1.22Z"/>
    <path class="st1" d="M96.26,7.57v1.74h-5.87v3.79h4.74v1.74h-4.74v3.52h5.87v1.76h-7.72V7.57h7.72Z"/>
    <path class="st1" d="M102.36,20.13V7.57h1.85v10.72h5.4v1.85h-7.25Z"/>
    <path class="st1" d="M124.69,20.13l-.73-1.71h-5.84l-.73,1.71h-1.86l5.52-12.56,5.52,12.56h-1.88ZM118.92,16.57h4.25l-2.12-4.96-2.13,4.96Z"/>
    <path class="st1" d="M139.17,13.24c.32.08.6.25.86.51.21.23.41.56.59.99.18.44.27,1.03.27,1.79,0,.85-.1,1.51-.29,1.99-.19.48-.44.84-.75,1.08-.31.24-.67.38-1.07.44-.4.06-.81.08-1.23.08h-4.89V7.57h4.33c.65,0,1.17.13,1.55.38.38.25.67.55.86.9.2.34.32.7.38,1.06.06.37.08.67.08.9,0,.47-.04.86-.11,1.17-.07.31-.16.56-.25.75-.11.21-.23.38-.36.51ZM134.65,12.68h1.83c.43,0,.79-.14,1.07-.41.29-.28.43-.7.43-1.27,0-.13-.02-.3-.06-.49-.04-.19-.12-.37-.23-.55-.11-.17-.27-.33-.47-.45-.2-.13-.45-.19-.75-.19h-1.83v3.37ZM137.3,18.42c.2,0,.4-.01.6-.03.2-.02.37-.09.52-.21.15-.12.28-.31.37-.58.1-.27.14-.65.14-1.14,0-.39-.05-.72-.14-.97-.09-.25-.21-.45-.36-.59-.15-.14-.33-.24-.52-.29-.2-.05-.4-.08-.62-.08h-2.66v3.89h2.66Z"/>
  </g>
</svg>