<?xml version="1.0" encoding="UTF-8"?><svg id="Layer_2" xmlns="http://www.w3.org/2000/svg" viewBox="0 0 1200 1070.74"><defs><style>.cls-1{fill:#ef443a;}</style></defs><g id="Layer_1-2"><path class="cls-1" d="M391.15,201.81c5.07-8.73,14.36-14.08,24.41-14.08h62.42c15.55,0,28.16-12.61,28.16-28.16V28.16c0-15.55-12.61-28.16-28.16-28.16h-119.12c-42.05,0-80.91,22.44-101.94,58.85L15.77,476.47c-21.03,36.42-21.03,81.29,0,117.81l241.15,417.61c21.03,36.42,59.89,58.85,101.94,58.85h119.12c15.55,0,28.16-12.61,28.16-28.16v-131.41c0-15.55-12.61-28.16-28.16-28.16h-62.42c-10.04,0-19.34-5.35-24.41-14.08l-179.47-310.98-4.97-8.54c-5.07-8.73-5.07-19.43,0-28.16l184.45-319.43Z"/><path class="cls-1" d="M1184.23,594.27l-241.15,417.61c-21.03,36.42-59.89,58.85-101.94,58.85h-119.12c-15.55,0-28.16-12.61-28.16-28.16v-131.41c0-15.55,12.61-28.16,28.16-28.16h62.52c10.04,0,19.34-5.35,24.41-14.08l184.36-319.52c2.63-4.51,3.85-9.57,3.85-14.55-.09-4.69-1.41-9.39-3.85-13.61l-184.36-319.43c-5.07-8.73-14.36-14.08-24.41-14.08h-62.52c-15.55,0-28.16-12.61-28.16-28.16V28.16c0-15.55,12.61-28.16,28.16-28.16h119.12c42.05,0,80.91,22.44,101.94,58.85l210.17,363.92,14.64,25.34,16.33,28.35c21.03,36.42,21.03,81.29,0,117.81Z"/><path class="cls-1" d="M911.77,596.81l-132.61,229.88c-3.35,5.81-9.55,9.39-16.26,9.39h-325.72c-6.71,0-12.91-3.58-16.26-9.39l-161.22-279.39c-2.98-5.16-.47-11.7,5.16-13.62,72.97-24.93,188.77-33.84,341.89,51.12,92,51.04,195.71,38.41,293.33-1.3,8.29-3.37,16.16,5.56,11.69,13.32Z"/><circle class="cls-1" cx="731.37" cy="468.11" r="48.32"/><circle class="cls-1" cx="554.45" cy="347.42" r="31.31" transform="translate(-83.27 493.81) rotate(-45)"/><circle class="cls-1" cx="630.37" cy="171.57" r="22.14" transform="translate(360.05 766.31) rotate(-80.78)"/></g></svg>